<svg width="98" height="130" viewBox="0 0 98 130" fill="none" xmlns="http://www.w3.org/2000/svg">
<g clip-path="url(#clip0_93_1694)">
<path d="M57.6512 1.06417C56.7882 1.51403 55.5396 2.47802 54.952 3.14822C54.2726 3.91941 53.4923 5.18637 53.1618 6.04019C52.6843 7.29797 52.5558 8.06916 52.5558 9.63909C52.565 10.8969 52.5925 11.1631 52.8129 11.971C53.4096 14.1377 54.5756 15.8729 56.2924 17.1766C58.1561 18.5721 60.0749 19.1596 62.4711 19.0678C63.8024 19.0127 64.4726 18.875 65.6385 18.4252C68.6866 17.25 71.0461 14.2754 71.5235 11.007C71.7622 9.3453 71.5051 7.27961 70.8716 5.78313C69.623 2.8728 66.9055 0.706115 63.7748 0.136902C61.8009 -0.221151 59.4047 0.136902 57.6512 1.06417ZM68.4846 11.0988C68.1908 12.3291 67.6767 13.2196 66.7035 14.1836C65.9966 14.8905 65.7303 15.0833 64.9959 15.4414C63.986 15.9372 63.0863 16.1575 62.1039 16.1575C58.7988 16.1575 56.017 13.7521 55.5396 10.4745C55.3468 9.20759 55.558 7.86718 56.1088 6.71958C57.0177 4.8375 58.7345 3.50628 60.791 3.08396C65.4549 2.11997 69.5955 6.44415 68.4846 11.0988Z" fill="#0045A8"/>
<path d="M61.9203 6.2696C61.1858 6.29714 61.0297 6.33386 60.5156 6.60011C60.2035 6.77454 59.9464 6.9398 59.9464 6.97652C59.9464 7.06833 65.1887 10.5754 65.2438 10.5203C65.3723 10.3918 65.4457 9.46453 65.3631 9.00549C65.1336 7.7569 64.3348 6.82963 63.0862 6.36141C62.8659 6.27878 62.462 6.25124 61.9203 6.2696Z" fill="#0045A8"/>
<path d="M58.9181 8.54648C58.7988 8.5373 58.7253 9.17996 58.7712 9.85935C58.9181 12.127 61.3602 13.5501 63.4535 12.5952C63.6738 12.4943 63.9309 12.3474 64.0319 12.2739C64.2522 12.0995 64.5644 12.3382 61.3694 10.1715C60.0566 9.28095 58.9549 8.54648 58.9181 8.54648Z" fill="#0045A8"/>
<path d="M50.536 14.4221L50.2606 14.6792C49.9852 14.9362 44.1186 20.307 40.0698 24.0069C38.858 25.1178 36.3975 27.3671 34.6072 29.0105C32.817 30.6539 30.6319 32.6553 29.7414 33.4632C28.8508 34.2711 27.1524 35.8227 25.968 36.906C24.7837 37.9894 22.8741 39.7521 21.7081 40.8079C18.9263 43.351 18.045 44.1773 18.0082 44.2599C17.9899 44.2874 18.201 44.4435 18.4673 44.5996C20.4779 45.7288 22.6538 48.0791 23.783 50.3376L24.1502 51.0629L24.5817 50.6681C24.8204 50.4478 25.9405 49.4287 27.0789 48.3913C28.2082 47.3447 29.4109 46.2521 29.7414 45.9492C30.0719 45.6462 30.8155 44.9576 31.3939 44.4252C31.9723 43.8835 32.6701 43.25 32.9455 43.0021C33.2209 42.7542 34.4603 41.625 35.6998 40.4866C36.9392 39.3481 38.4448 37.971 39.06 37.4202C39.6659 36.8601 41.3827 35.2902 42.87 33.9314C44.3573 32.5635 46.5515 30.5621 47.7359 29.4695C50.0494 27.3579 50.1504 27.2661 52.0968 25.4667C52.8037 24.8148 54.1808 23.5571 55.154 22.6757C56.118 21.7943 56.9167 21.0415 56.9167 21.0048C56.9167 20.9681 56.6688 20.812 56.3659 20.6559C54.0431 19.4808 52.161 17.5803 50.8849 15.1015L50.536 14.4221Z" fill="#0045A8"/>
<path d="M72.9832 15.0557C72.9557 15.0557 72.7812 15.3127 72.5976 15.6341C72.0651 16.543 71.1011 17.6722 70.2198 18.4342C69.7699 18.8198 69.4027 19.1595 69.4027 19.187C69.4027 19.2421 69.8893 19.6828 75.8293 24.9251C78.9416 27.6793 80.9889 29.4971 81.549 29.9929L81.907 30.3051L81.7968 31.1222C81.6132 32.5268 81.9529 33.9407 82.7516 35.1526C83.0271 35.5565 83.1556 35.8503 83.1189 35.9146C83.073 35.9788 81.9713 37.356 80.6584 38.9718C79.3547 40.5876 78.2438 41.9556 78.1979 42.0198C78.1337 42.0933 78.2806 42.4513 78.6386 43.1215C80.9797 47.51 82.3569 50.0714 82.3752 50.099C82.412 50.1265 83.8074 49.4196 83.936 49.3003C83.9819 49.2635 83.5504 48.3638 82.9903 47.3172C82.4211 46.2614 81.5857 44.7098 81.1358 43.8652L80.3095 42.332L82.4854 39.6604C83.6789 38.2006 84.6704 36.9979 84.698 36.9979C84.7255 36.9979 84.9091 37.0805 85.1111 37.1907C86.525 37.9068 88.7559 37.8885 90.2157 37.1448L90.6747 36.9153L91.5469 37.9894C94.191 41.2211 95.0173 42.2494 95.0173 42.3412C95.0173 42.433 92.3273 47.5192 91.5836 48.8412L91.3541 49.2544L92.1712 49.695L92.9791 50.1265L93.2086 49.7409C93.328 49.5206 93.9615 48.3546 94.6041 47.1428C95.2468 45.9309 95.8435 44.8108 95.9353 44.6639C96.018 44.5078 96.3301 43.9295 96.6239 43.3786C96.9177 42.8186 97.1931 42.3228 97.239 42.2585C97.3217 42.1575 96.5413 41.1568 93.3004 37.2091L92.0794 35.7126L92.4007 35.2719C93.1168 34.2712 93.4565 33.1695 93.4565 31.8566C93.4565 30.9294 93.2454 29.9562 92.9057 29.286C92.0794 27.6702 90.4727 26.4399 88.7467 26.1186C87.8378 25.9442 87.4155 25.9442 86.4882 26.1186C86.0751 26.2012 85.6803 26.2288 85.6161 26.192C85.5426 26.1553 85.3039 25.9533 85.0836 25.7514C84.8724 25.5494 83.1005 23.9795 81.1634 22.2626C79.217 20.5458 76.6005 18.2231 75.3335 17.0938C74.0666 15.9737 73.0108 15.0557 72.9832 15.0557Z" fill="#0045A8"/>
<path d="M10.6911 45.5086C5.37539 45.7473 0.996122 49.6032 0.133122 54.8088C-0.0963997 56.1767 -0.0229529 58.2883 0.298377 59.5002C1.13384 62.6033 3.23625 65.2474 6.01805 66.6704C9.22217 68.3138 12.9955 68.3413 16.1813 66.7347C22.1213 63.7509 24.187 56.4062 20.6891 50.7692C19.3027 48.5382 17.2003 46.8857 14.6848 46.0502C13.8401 45.7748 13.2067 45.6463 11.9305 45.4994C11.7561 45.481 11.1961 45.481 10.6911 45.5086ZM10.9665 49.2452C11.6735 49.236 12.3345 49.236 12.4355 49.2635C14.2992 49.7042 15.3733 50.2734 16.5118 51.4394C17.2371 52.1738 17.5492 52.6237 17.9899 53.5693C19.2201 56.1767 18.8621 59.032 17.0075 61.4373C16.1262 62.5941 14.4002 63.6775 12.8486 64.0447C12.0131 64.2467 10.5809 64.265 9.69039 64.0906C7.45026 63.6407 5.47638 62.1259 4.4573 60.0786C3.83301 58.8116 3.71366 58.2975 3.71366 56.6908C3.72284 55.5065 3.75038 55.2127 3.934 54.6251C4.71437 52.1004 6.51382 50.2918 9.03855 49.4839C9.55268 49.3186 9.94746 49.2727 10.9665 49.2452Z" fill="#0045A8"/>
<path d="M7.21156 54.7353C6.78924 55.5891 6.63317 56.5164 6.77088 57.3151C6.88105 57.9853 7.22074 58.9401 7.34928 58.9401C7.46863 58.9401 13.6749 53.1653 13.6749 53.0552C13.6749 52.9266 12.8027 52.5227 12.2243 52.385C10.2229 51.8984 8.12047 52.8807 7.21156 54.7353Z" fill="#0045A8"/>
<path d="M14.951 54.4599C14.9143 54.4782 14.4002 54.9465 13.8034 55.5065C13.1975 56.0665 12.1141 57.0672 11.3797 57.7466C9.61695 59.3716 8.62541 60.3081 8.62541 60.3632C8.62541 60.3907 8.82739 60.5101 9.08446 60.6386C10.3606 61.2813 11.8479 61.3088 13.124 60.7029C13.7575 60.3999 14.85 59.3257 15.1346 58.729C15.7406 57.4712 15.7589 55.9655 15.1805 54.7812C15.0887 54.5976 14.9877 54.4507 14.951 54.4599Z" fill="#0045A8"/>
<path d="M24.288 62.0156C23.9666 62.8511 23.1679 64.2558 22.4793 65.1922C20.8819 67.3497 18.1919 69.3144 15.8324 70.0489C15.6304 70.1132 15.4376 70.1866 15.3917 70.205C15.355 70.2233 15.8783 70.8476 16.5393 71.6005C17.742 72.9317 23.4066 79.2022 24.0584 79.9183C24.2421 80.1203 24.6276 80.5518 24.9306 80.8823C25.5733 81.5892 26.0599 82.1217 26.6291 82.7552C26.8678 83.0123 28.2449 84.5455 29.7047 86.1705C31.1644 87.7863 33.6341 90.5222 35.1948 92.2574L38.0317 95.3972L38.4081 94.6811C40.0882 91.4862 43.2189 88.6309 46.6342 87.162C47.0657 86.9784 47.4421 86.804 47.4788 86.7672C47.5431 86.7122 47.3594 86.4918 44.4767 83.3152C43.5678 82.3053 41.8326 80.3865 40.6299 79.0461C39.4272 77.7057 38.1051 76.246 37.692 75.7961C37.2789 75.3463 36.8841 74.9056 36.8106 74.8229C36.7372 74.7403 35.7824 73.6753 34.6899 72.4726C33.5973 71.2699 31.2838 68.7085 29.5578 66.7897C27.8226 64.8709 26.0507 62.9154 25.6192 62.438C25.1877 61.9697 24.7929 61.5291 24.7562 61.4556C24.6276 61.2261 24.5542 61.3179 24.288 62.0156Z" fill="#0045A8"/>
<path d="M51.2889 89.7878C45.5141 90.9171 41.043 95.4524 39.9689 101.264C39.7393 102.467 39.7393 105.019 39.9689 106.222C40.4738 108.994 41.9152 111.767 43.8524 113.713C45.9915 115.861 48.4428 117.147 51.5459 117.762C52.8129 118.01 55.2642 117.982 56.6138 117.716C61.8101 116.679 65.813 113.153 67.4747 108.159C68.0072 106.57 68.1541 105.625 68.1541 103.743C68.1541 101.861 68.0164 100.943 67.4747 99.3268C66.0792 95.1311 63.0036 91.9362 58.8906 90.403C57.8164 90.0082 56.9626 89.8062 55.2183 89.5675C54.5481 89.4757 52.2345 89.6042 51.2889 89.7878ZM54.7592 93.2398C56.5587 93.4877 57.5227 93.754 58.7162 94.3599C61.599 95.8197 63.6922 98.6015 64.3165 101.787C64.5276 102.843 64.5276 104.817 64.3165 105.744C63.6922 108.581 62.1498 110.858 59.7995 112.428C56.6964 114.494 52.8312 114.842 49.5537 113.355C47.0381 112.207 44.9265 109.784 44.0084 106.974C43.3382 104.909 43.274 102.696 43.8432 100.713C44.8898 97.0683 48.0756 94.1947 51.9132 93.4235C52.666 93.2766 54.2634 93.1756 54.7592 93.2398Z" fill="#0045A8"/>
<path d="M53.7493 97.821C52.06 97.8669 50.94 98.3352 49.7557 99.5195C48.5897 100.676 48.0113 102.081 48.0113 103.734C48.0113 104.817 48.1949 105.588 48.6815 106.543C49.4343 108.003 50.9308 109.159 52.6017 109.582C53.4096 109.784 55.0897 109.719 55.8426 109.444C57.8256 108.746 59.3129 107.14 59.8087 105.166C60.0107 104.367 59.9831 103.017 59.7536 102.182C59.1477 99.9694 57.3023 98.2617 55.0806 97.8302C54.952 97.8119 54.3553 97.8027 53.7493 97.821Z" fill="#0045A8"/>
<path d="M70.4493 108.627C70.4401 108.645 70.2749 109.068 70.0912 109.573C69.4302 111.354 68.3928 113.181 67.2911 114.53C66.6301 115.329 65.1336 116.789 64.3991 117.349C59.8638 120.792 54.0339 121.774 48.6356 120.02C47.3135 119.589 45.1836 118.515 44.0635 117.725C43.0812 117.018 41.447 115.485 40.6666 114.53C39.5465 113.162 38.4448 111.198 37.8205 109.444C37.6553 108.976 37.5084 108.618 37.4992 108.627C37.4808 108.645 37.2054 109.233 36.8749 109.94C36.5444 110.647 36.0854 111.638 35.8467 112.143C35.608 112.648 35.1673 113.594 34.8643 114.255C34.5613 114.907 34.0472 115.999 33.7259 116.678C33.4045 117.349 33.1383 117.918 33.1383 117.927C33.1383 117.945 32.8262 118.606 32.4497 119.396C32.0733 120.195 31.7612 120.847 31.7612 120.865C31.7612 120.874 31.5225 121.397 31.2195 122.022C30.9257 122.646 30.3749 123.821 29.9893 124.629C28.0613 128.742 27.538 129.881 27.538 129.936C27.538 129.972 39.4731 130 54.0707 130C68.659 130 80.6033 129.982 80.6033 129.954C80.6033 129.917 79.7587 128.127 77.3717 123.114C77.1146 122.582 76.3618 120.993 75.6916 119.58C74.4338 116.926 74.2043 116.449 71.8632 111.519C71.1011 109.921 70.4677 108.618 70.4493 108.627Z" fill="#0045A8"/>
</g>
<defs>
<clipPath id="clip0_93_1694">
<rect width="97.2455" height="130" fill="white"/>
</clipPath>
</defs>
</svg>
