<svg width="132" height="130" viewBox="0 0 132 130" fill="none" xmlns="http://www.w3.org/2000/svg">
<g clip-path="url(#clip0_91_1438)">
<path d="M50.6085 103.373H46.2001V107.001H50.6085V103.373Z" fill="#0045A8"/>
<path d="M51.1272 107.525H45.6815V102.859H51.1272V107.525ZM46.7188 106.487H50.0899V103.897H46.7188V106.487Z" fill="#0045A8"/>
<path d="M58.2533 103.373H53.8448V107.001H58.2533V103.373Z" fill="#0045A8"/>
<path d="M58.7771 107.525H53.3314V102.859H58.7771V107.525ZM54.3687 106.487H57.7398V103.897H54.3687V106.487Z" fill="#0045A8"/>
<path d="M65.898 103.373H61.4896V107.001H65.898V103.373Z" fill="#0045A8"/>
<path d="M66.4218 107.525H60.9761V102.859H66.4218V107.525ZM62.0134 106.487H65.3845V103.897H62.0134V106.487Z" fill="#0045A8"/>
<path d="M73.5426 103.373H69.1342V107.001H73.5426V103.373Z" fill="#0045A8"/>
<path d="M74.0665 107.525H68.6208V102.859H74.0665V107.525ZM69.6581 106.487H73.0292V103.897H69.6581V106.487Z" fill="#0045A8"/>
<path d="M81.1873 103.373H76.7789V107.001H81.1873V103.373Z" fill="#0045A8"/>
<path d="M81.7112 107.525H76.2655V102.859H81.7112V107.525ZM77.3028 106.487H80.6739V103.897H77.3028V106.487Z" fill="#0045A8"/>
<path d="M88.8321 103.373H84.4236V107.001H88.8321V103.373Z" fill="#0045A8"/>
<path d="M89.3559 107.525H83.9102V102.859H89.3559V107.525ZM84.9475 106.487H88.3186V103.897H84.9475V106.487Z" fill="#0045A8"/>
<path d="M96.4768 103.373H92.0684V107.001H96.4768V103.373Z" fill="#0045A8"/>
<path d="M97.0006 107.525H91.5549V102.859H97.0006V107.525ZM92.5922 106.487H95.9633V103.897H92.5922V106.487Z" fill="#0045A8"/>
<path d="M104.121 103.373H99.713V107.001H104.121V103.373Z" fill="#0045A8"/>
<path d="M104.645 107.525H99.1996V102.859H104.645V107.525ZM100.237 106.487H103.608V103.897H100.237V106.487Z" fill="#0045A8"/>
<path d="M111.766 103.373H107.358V107.001H111.766V103.373Z" fill="#0045A8"/>
<path d="M112.29 107.525H106.844V102.859H112.29V107.525ZM107.882 106.487H111.253V103.897H107.882V106.487Z" fill="#0045A8"/>
<path d="M119.411 103.373H115.002V107.001H119.411V103.373Z" fill="#0045A8"/>
<path d="M119.935 107.525H114.489V102.859H119.935V107.525ZM115.526 106.487H118.897V103.897H115.526V106.487Z" fill="#0045A8"/>
<path d="M129.675 92.3745V129.481H1.25513L4.79742 125.941C4.9945 125.739 24.9205 104.904 30.0706 43.4649L30.2314 41.5652H62.0134V33.7847H66.1625V45.7175H34.0382C29.7024 94.0717 16.5342 117.185 10.6269 125.329H125.526V96.5268H82.8315L82.2454 95.4109C74.8912 81.3759 74.3311 56.3424 74.3466 48.6501C74.3466 47.3733 74.3673 46.5739 74.3725 46.3819L74.4192 44.3939V44.3576H89.3456V48.51H78.5009C78.5061 55.5171 79.0092 79.0039 85.3676 92.3745H129.675Z" fill="#0045A8"/>
<path d="M130.193 130H0L4.42916 125.573C4.62624 125.37 24.4433 104.375 29.5519 43.4182L29.7542 41.041H61.4948V33.2605H66.6811V46.2314H34.5101C30.2313 93.1687 17.5247 116.349 11.6278 124.804H125.007V97.0407H82.5203L81.789 95.6445C74.3466 81.4383 73.8176 56.0777 73.8331 48.6398C73.8331 47.3578 73.8539 46.5532 73.8591 46.356L73.9161 43.8646L74.4244 43.8283H89.8694V49.0187H79.0247C79.0558 56.441 79.673 78.8534 85.6995 91.8451H130.199V129.99L130.193 130ZM2.5102 128.962H129.156V92.8936H85.0409L84.9008 92.5977C78.5009 79.1441 77.9874 55.4497 77.9822 48.51V47.991H88.8269V44.8767H74.9275L74.8911 46.3923C74.886 46.5844 74.8652 47.3785 74.8652 48.6502C74.8497 56.0258 75.3735 81.1735 82.707 95.167L83.1479 96.0078H126.049V125.848H9.60515L10.2016 125.022C15.7614 117.361 29.1578 94.2898 33.5143 45.6709L33.5558 45.1985H65.6335V34.3038H62.5217V42.0843H30.7085L30.5892 43.5064C25.4443 104.868 5.36789 126.097 5.16562 126.304L2.50502 128.962H2.5102Z" fill="#0045A8"/>
<path d="M41.6621 127.405H37.513V92.3743H84.0814V96.5266H41.6621V127.405Z" fill="#0045A8"/>
<path d="M42.1808 127.924H36.9944V91.8501H84.6052V97.0405H42.1808V127.924ZM38.0317 126.886H41.1435V96.0025H83.568V92.8882H38.0317V126.886Z" fill="#0045A8"/>
<path d="M122.32 94.4507H118.171V89.6599H101.544V94.4507H97.3948V85.5076H122.32V94.4507Z" fill="#0045A8"/>
<path d="M122.839 94.9698H117.653V90.179H102.062V94.9698H96.8761V84.9885H122.839V94.9698ZM118.69 93.9317H121.802V86.0266H97.9134V93.9317H101.025V89.1409H118.69V93.9317Z" fill="#0045A8"/>
<path d="M118.498 77.8723H114.349V87.5836H118.498V77.8723Z" fill="#0045A8"/>
<path d="M119.017 88.1027H113.83V77.3533H119.017V88.1027ZM114.868 87.0646H117.979V78.3914H114.868V87.0646Z" fill="#0045A8"/>
<path d="M82.6603 19.0178C82.6603 20.9954 82.3491 22.9314 81.7423 24.7844L78.5838 23.7463L78.5994 22.2515C79.0714 20.8189 79.3099 19.3137 79.3099 17.7825C79.3099 9.87223 72.0853 4.6714 64.1813 4.6714C56.2773 4.6714 49.8514 11.1076 49.8514 19.0178C49.8514 21.6701 50.5671 24.2083 51.8948 26.4038C52.0608 26.6945 52.2423 26.9748 52.4394 27.2499C53.2692 28.6617 53.8241 30.2499 54.0264 31.9472L52.7609 33.5614C51.288 32.404 50.0225 31.0545 48.9904 29.5648C48.9904 29.5648 48.9852 29.5596 48.9852 29.5544C48.7519 29.2274 48.534 28.89 48.3318 28.5475C47.1026 26.5076 46.2831 24.2394 45.9201 21.857C45.7749 20.9279 45.7023 19.978 45.7023 19.0178C45.7023 8.81857 53.9901 0.519043 64.1813 0.519043C73.4805 0.519043 81.1978 7.43272 82.4736 16.3914C82.5981 17.2479 82.6603 18.125 82.6603 19.0178Z" fill="#0045A8"/>
<path d="M52.8491 34.2881L52.4394 33.9663C50.9509 32.7984 49.6543 31.4282 48.5859 29.8918L48.4718 29.7724V29.7257C48.2695 29.435 48.0725 29.1288 47.8858 28.8122C46.6151 26.7049 45.7801 24.3899 45.4067 21.9348C45.2563 20.985 45.1837 20.004 45.1837 19.0178C45.1837 8.5331 53.7049 0 64.1813 0C73.579 0 81.6646 7.01749 82.9871 16.3188C83.1167 17.196 83.179 18.1043 83.179 19.0178C83.179 21.0369 82.8626 23.0352 82.2351 24.9453L82.0743 25.4384L78.06 24.12L78.1067 22.0906C78.5631 20.7099 78.7913 19.2618 78.7913 17.7825C78.7913 9.89818 71.3644 5.19045 64.1813 5.19045C56.5677 5.19045 50.37 11.393 50.37 19.0178C50.37 21.5456 51.0494 24.0058 52.3408 26.1339C52.5016 26.4142 52.6728 26.6789 52.8647 26.9488C53.7827 28.5059 54.3376 30.1513 54.545 31.8849L54.571 32.0977L52.8543 34.2881H52.8491ZM49.5039 29.3935C50.4011 30.6652 51.4695 31.8175 52.678 32.8244L53.487 31.7967C53.2796 30.2811 52.7765 28.8433 51.9934 27.5146C51.8066 27.255 51.6199 26.9644 51.4436 26.6633C50.064 24.3847 49.3327 21.7376 49.3327 19.0178C49.3327 10.8221 55.992 4.15236 64.1813 4.15236C71.8727 4.15236 79.8286 9.24938 79.8286 17.7825C79.8286 19.3448 79.59 20.876 79.1181 22.3345L79.1077 23.3674L81.4052 24.12C81.8928 22.4643 82.1417 20.7462 82.1417 19.0126C82.1417 18.1458 82.0795 17.2894 81.9602 16.4589C80.7051 7.6611 73.0656 1.0329 64.1813 1.0329C54.2754 1.0329 46.2209 9.09886 46.2209 19.0126C46.2209 19.9469 46.2935 20.8708 46.4336 21.7739C46.7862 24.0941 47.5746 26.2844 48.7778 28.2776C48.9801 28.6201 49.1927 28.9471 49.4105 29.2534L49.5091 29.3935H49.5039Z" fill="#0045A8"/>
<path d="M107.067 26.8192C106.855 18.8051 100.408 12.5247 92.3899 12.5247C88.6558 12.5247 85.1342 13.9676 82.4736 16.3915C80.8088 17.9123 79.4811 19.8224 78.6564 22.0024L78.5112 22.3865L78.5216 22.7966C78.532 23.1184 78.5475 23.435 78.5838 23.7464C79.2633 31.2933 85.5128 37.0755 93.2042 37.0755C96.2953 37.0755 99.2463 36.0841 101.679 34.3609C102.161 34.0235 102.617 33.655 103.053 33.2553C103.696 32.6844 104.287 32.0459 104.822 31.3608C105.693 30.2397 106.409 28.9784 106.933 27.6081L107.078 27.224C107.078 27.0891 107.073 26.9541 107.067 26.8192ZM93.2042 32.9231C87.5926 32.9231 83.0493 28.641 82.6862 23.0976C84.3251 19.2411 88.1734 16.677 92.3899 16.677C98.0016 16.677 102.545 20.9643 102.898 26.5129C101.259 30.3642 97.4155 32.9231 93.2042 32.9231Z" fill="#0045A8" stroke="#0045A8" stroke-miterlimit="10"/>
<path d="M105.169 34.4645L101.565 32.409C102.457 30.8415 102.929 29.0508 102.929 27.2238C102.929 27.1667 102.929 27.1148 102.929 27.0577L107.062 26.6736C107.078 26.8501 107.083 27.0369 107.083 27.2186C107.083 29.7671 106.424 32.2689 105.179 34.4593L105.169 34.4645Z" fill="#0045A8"/>
<path d="M105.366 35.1756L100.859 32.6063L101.113 32.1547C101.959 30.6651 102.41 28.9626 102.41 27.2238C102.41 27.1511 102.41 27.1252 102.41 27.0992L102.374 26.5906L107.529 26.113L107.576 26.6269C107.596 26.8189 107.596 27.0214 107.596 27.2238C107.596 29.8605 106.912 32.4506 105.62 34.724L105.361 35.1756H105.366ZM102.265 32.2118L104.972 33.7534C106.009 31.7602 106.559 29.5232 106.559 27.2446L103.442 27.53C103.39 29.1806 102.991 30.7741 102.265 32.2066V32.2118Z" fill="#0045A8"/>
<path d="M54.1197 33.4368C54.1197 34.9264 53.8552 36.3798 53.3366 37.7552L49.4572 36.2864C49.7995 35.3832 49.9706 34.423 49.9706 33.4368C49.9706 32.0354 49.6179 30.717 48.9904 29.5647C48.9904 29.5647 48.9852 29.5595 48.9852 29.5543C48.7933 29.2014 48.5755 28.864 48.3317 28.5474C46.8484 26.5854 44.4938 25.3137 41.8488 25.3137C37.3729 25.3137 33.7321 28.9574 33.7321 33.4368C33.7321 34.423 33.9033 35.3832 34.2456 36.2864L30.3661 37.7552C29.8475 36.3798 29.583 34.9264 29.583 33.4368C29.583 26.6684 35.0857 21.1614 41.8488 21.1614C43.275 21.1614 44.6494 21.4053 45.9201 21.8569C48.3577 22.7133 50.4426 24.3224 51.8948 26.4037C52.0607 26.6944 52.2422 26.9747 52.4393 27.2498C53.2691 28.6616 53.8241 30.2499 54.0264 31.9471C54.0886 32.435 54.1197 32.9333 54.1197 33.4368Z" fill="#0045A8"/>
<path d="M53.6374 38.4248L48.7881 36.5874L48.9697 36.0995C49.286 35.2586 49.4468 34.3607 49.4468 33.4368C49.4468 32.1911 49.1408 30.9609 48.5599 29.871L48.4666 29.7723V29.6945C48.3006 29.3986 48.1139 29.1235 47.9168 28.864C46.4595 26.9383 44.2449 25.8328 41.8436 25.8328C37.653 25.8328 34.2456 29.2429 34.2456 33.4368C34.2456 34.3659 34.4063 35.2638 34.7279 36.0995L34.9094 36.5874L30.0602 38.4248L29.8787 37.9369C29.3393 36.4992 29.0644 34.9835 29.0644 33.4368C29.0644 26.383 34.8005 20.6423 41.8488 20.6423C43.3113 20.6423 44.7376 20.8863 46.0912 21.369C48.5859 22.2462 50.7953 23.9279 52.3201 26.1079C52.5016 26.4193 52.6675 26.6788 52.8594 26.9487C53.7774 28.5059 54.3324 30.1512 54.5398 31.8848C54.6021 32.3883 54.6384 32.9126 54.6384 33.4368C54.6384 34.9887 54.3635 36.5043 53.8241 37.9369L53.6426 38.4248H53.6374ZM41.8488 21.6804C35.371 21.6804 30.1017 26.9539 30.1017 33.4368C30.1017 34.6877 30.2936 35.9074 30.6774 37.0805L33.5921 35.9801C33.3431 35.1652 33.2135 34.314 33.2135 33.4368C33.2135 28.672 37.0877 24.7947 41.8488 24.7947C44.5768 24.7947 47.0922 26.0508 48.7467 28.236C49.0008 28.563 49.2342 28.9263 49.4416 29.3052L49.5039 29.4246C50.147 30.6495 50.4893 32.0354 50.4893 33.4368C50.4893 34.314 50.3596 35.1652 50.1107 35.9801L53.0254 37.0805C53.4092 35.9074 53.6011 34.6825 53.6011 33.4368C53.6011 32.9541 53.57 32.4766 53.5129 32.0146C53.321 30.4211 52.8128 28.9055 51.9933 27.5145C51.8066 27.255 51.6199 26.9643 51.4436 26.6633C50.0692 24.7013 48.0413 23.1545 45.7489 22.35C44.5042 21.9088 43.1921 21.6856 41.8488 21.6856V21.6804Z" fill="#0045A8"/>
<path d="M129.457 31.3606H99.1375V35.513H129.457V31.3606Z" fill="#0045A8"/>
<path d="M129.981 36.032H98.624V30.8416H129.981V36.032ZM99.6613 34.9939H128.944V31.8796H99.6613V34.9939Z" fill="#0045A8"/>
<path d="M77.4169 47.5755C76.4574 48.0893 75.4201 48.4475 74.3466 48.6499C73.7035 48.7693 73.05 48.8316 72.3913 48.8316C69.4921 48.8316 66.8108 47.6637 64.8659 45.7173C63.5485 44.3989 62.5631 42.7224 62.0756 40.8175L66.1002 39.7898L66.1625 40.0234C66.9716 42.7795 69.4973 44.6792 72.3913 44.6792C73.0759 44.6792 73.7657 44.591 74.4192 44.3937C74.4555 44.3937 74.497 44.373 74.5333 44.3574H75.7002L77.4169 47.5755Z" fill="#0045A8"/>
<path d="M72.3913 49.3507C69.4091 49.3507 66.6033 48.1932 64.4976 46.0859C63.0818 44.6689 62.0704 42.8886 61.5725 40.9474L61.4429 40.4439L66.4685 39.1619L66.6604 39.8937C67.4072 42.4422 69.7099 44.1655 72.3861 44.1655C73.05 44.1655 73.6827 44.0772 74.2636 43.9007L74.5281 43.8437H76.0062L78.1119 47.7936L77.6555 48.0375C76.6597 48.5722 75.5757 48.9511 74.4347 49.1639C73.7553 49.2884 73.0655 49.3559 72.3809 49.3559L72.3913 49.3507ZM62.7187 41.1861C63.2062 42.7537 64.0672 44.1862 65.2341 45.3489C67.1427 47.259 69.684 48.3126 72.3913 48.3126C73.0085 48.3126 73.636 48.2555 74.2532 48.1413C75.1141 47.9804 75.9388 47.7157 76.7115 47.3524L75.3942 44.8766H74.6318C74.6059 44.8869 74.5748 44.8921 74.5488 44.8973C73.8798 45.0945 73.1537 45.1984 72.3965 45.1984C69.3417 45.1984 66.7018 43.2883 65.7476 40.418L62.7239 41.1913L62.7187 41.1861Z" fill="#0045A8"/>
<path d="M121.672 44.7988H100.133V48.9512H121.672V44.7988Z" fill="#0045A8"/>
<path d="M122.186 49.4702H99.6094V44.2798H122.186V49.4702ZM100.647 48.4321H121.148V45.3179H100.647V48.4321Z" fill="#0045A8"/>
<path d="M95.8026 71.3998C87.8882 71.3998 81.4519 64.9585 81.4519 57.0378H85.601C85.601 62.6695 90.1754 67.2475 95.8026 67.2475C101.43 67.2475 105.999 62.6695 105.999 57.0378H110.148C110.148 64.9585 103.712 71.3998 95.8026 71.3998Z" fill="#0045A8"/>
<path d="M95.8026 71.9189C87.603 71.9189 80.9333 65.2439 80.9333 57.0378V56.5188H86.1197V57.0378C86.1197 62.3788 90.4658 66.7284 95.8026 66.7284C101.139 66.7284 105.48 62.3788 105.48 57.0378V56.5188H110.667V57.0378C110.667 65.2439 103.997 71.9189 95.8026 71.9189ZM81.9809 57.5569C82.2558 64.9481 88.3498 70.8808 95.8026 70.8808C103.255 70.8808 109.344 64.9481 109.619 57.5569H106.502C106.232 63.2301 101.534 67.7665 95.7974 67.7665C90.0613 67.7665 85.3624 63.2301 85.0876 57.5569H81.9706H81.9809Z" fill="#0045A8"/>
<path d="M106.155 72.4121L105.916 68.265C112.601 67.8809 118.005 62.3323 118.213 55.6262L122.362 55.756C122.082 64.7355 115.117 71.8983 106.155 72.4121Z" fill="#0045A8"/>
<path d="M105.662 72.9622L105.366 67.7821L105.885 67.751C112.306 67.3825 117.492 62.0519 117.694 55.6157L117.71 55.0967L122.896 55.2576L122.881 55.7766C122.595 65.0312 115.417 72.4068 106.186 72.9363L105.667 72.9674L105.662 72.9622ZM106.461 68.7476L106.637 71.8566C114.904 71.1352 121.309 64.5537 121.812 56.2593L118.7 56.1607C118.244 62.7266 113.001 68.1143 106.461 68.7424V68.7476Z" fill="#0045A8"/>
<path d="M131.127 53.6174H118.213V57.7698H131.127V53.6174Z" fill="#0045A8"/>
<path d="M131.646 58.2888H117.699V53.0984H131.646V58.2888ZM118.737 57.2507H130.608V54.1365H118.737V57.2507Z" fill="#0045A8"/>
<path d="M120.951 127.405H116.802V120.657H111.932V127.405H107.783V116.505H120.951V127.405Z" fill="#0045A8"/>
<path d="M121.47 127.924H116.283V121.171H112.451V127.924H107.264V115.98H121.47V127.924ZM117.321 126.886H120.433V117.019H108.302V126.886H111.413V120.133H117.321V126.886Z" fill="#0045A8"/>
<path d="M82.8262 127.405H78.6772V115.555H58.1236V127.405H53.9745V111.403H82.8262V127.405Z" fill="#0045A8"/>
<path d="M83.3449 127.924H78.1585V116.074H58.6474V127.924H53.4611V110.884H83.3449V127.924ZM79.1958 126.886H82.3076V111.922H54.4983V126.886H57.6102V115.036H79.1958V126.886Z" fill="#0045A8"/>
<path d="M80.7466 118.368H56.0491V122.521H80.7466V118.368Z" fill="#0045A8"/>
<path d="M81.2704 123.04H55.5356V117.849H81.2704V123.04ZM56.5729 122.001H80.2331V118.887H56.5729V122.001Z" fill="#0045A8"/>
</g>
<defs>
<clipPath id="clip0_91_1438">
<rect width="131.646" height="130" fill="white"/>
</clipPath>
</defs>
</svg>
