<svg width="121" height="130" viewBox="0 0 121 130" fill="none" xmlns="http://www.w3.org/2000/svg">
<g clip-path="url(#clip0_106_42)">
<path d="M93.21 14.64C92.15 16.32 90.97 18.2 89.64 20.32L87.9 23.1C101.79 32.1 111 47.74 111 65.5C111 93.35 88.35 116 60.5 116C53.48 116 46.79 114.56 40.71 111.96C38.96 113.91 37.22 115.84 35.49 117.76C34.88 118.43 34.29 119.09 33.71 119.73C41.79 123.74 50.88 126 60.5 126C93.86 126 121 98.86 121 65.5C121 44.18 109.92 25.41 93.21 14.64ZM10 65.5C10 39.55 29.67 18.11 54.88 15.32L60.14 5C26.94 5.2 0 32.26 0 65.5C0 85.99 10.23 104.12 25.86 115.07C27.34 112.24 29 109.06 30.53 106.11C18.08 96.92 10 82.14 10 65.5Z" fill="#0045A8"/>
<path d="M63.41 4.06C62.27 6.31 58.43 13.83 54.87 20.82C51.3 27.79 45.56 39.04 42.1 45.83C34.17 61.37 32.36 64.93 32.36 65.09C32.36 65.16 37.34 65.22 43.44 65.22C49.54 65.22 54.52 65.26 54.52 65.31C54.52 65.49 53.13 68.19 46.57 80.76C43.01 87.58 37.48 98.2 34.28 104.34C31.08 110.48 26.78 118.76 24.7 122.72C22.63 126.7 20.97 129.97 21 130.01C21.02 130.05 26.72 123.77 33.63 116.09C59.21 87.69 95.33 47.58 96.44 46.37C97.07 45.69 97.57 45.07 97.57 44.99C97.57 44.91 91.67 44.83 84.46 44.81L71.33 44.76L73.53 41.28C74.73 39.37 81.03 29.35 87.54 19C94.03 8.65 99.35 0.14 99.35 0.09C99.35 0.04 91.74 0 82.41 0H65.49L63.4 4.06H63.41Z" fill="#0045A8"/>
</g>
<defs>
<clipPath id="clip0_106_42">
<rect width="121" height="130" fill="white"/>
</clipPath>
</defs>
</svg>
